<mxfile host="app.diagrams.net" agent="Mozilla/5.0 (Macintosh; Intel Mac OS X 10.15; rv:139.0) Gecko/20100101 Firefox/139.0" version="27.0.5">
  <diagram name="Page-1" id="iId42JkROM5YTljwxBQK">
    <mxGraphModel dx="1898" dy="1318" grid="1" gridSize="10" guides="1" tooltips="1" connect="1" arrows="1" fold="1" page="1" pageScale="1" pageWidth="850" pageHeight="1100" math="0" shadow="0">
      <root>
        <mxCell id="0" />
        <mxCell id="1" parent="0" />
        <mxCell id="78uvDg3nvBKY--fQW9kl-1" value="com.ennsko.cli" style="shape=folder;fontStyle=1;spacingTop=10;tabWidth=40;tabHeight=14;tabPosition=left;html=1;whiteSpace=wrap;verticalAlign=top;align=left;container=1;collapsible=0;" parent="1" vertex="1">
          <mxGeometry x="230" y="55" width="220" height="240" as="geometry">
            <mxRectangle x="25" y="40" width="160" height="40" as="alternateBounds" />
          </mxGeometry>
        </mxCell>
        <mxCell id="78uvDg3nvBKY--fQW9kl-2" value="&lt;p style=&quot;margin:0px;margin-top:4px;text-align:center;&quot;&gt;&lt;b&gt;mainCLI&lt;/b&gt;&lt;/p&gt;&lt;hr size=&quot;1&quot; style=&quot;border-style:solid;&quot;&gt;&lt;p style=&quot;margin:0px;margin-left:4px;&quot;&gt;+ field: Type&lt;/p&gt;&lt;hr size=&quot;1&quot; style=&quot;border-style:solid;&quot;&gt;&lt;p style=&quot;margin:0px;margin-left:4px;&quot;&gt;+ method(): Type&lt;/p&gt;" style="verticalAlign=top;align=left;overflow=fill;html=1;whiteSpace=wrap;" parent="78uvDg3nvBKY--fQW9kl-1" vertex="1">
          <mxGeometry x="27.5" y="70.91027027027027" width="152.5" height="123.68432432432434" as="geometry" />
        </mxCell>
        <mxCell id="78uvDg3nvBKY--fQW9kl-3" value="com.ennsko.tuning" style="shape=folder;fontStyle=1;spacingTop=10;tabWidth=40;tabHeight=14;tabPosition=left;html=1;whiteSpace=wrap;verticalAlign=top;align=left;container=1;recursiveResize=0;collapsible=0;" parent="1" vertex="1">
          <mxGeometry x="80" y="360" width="710" height="570" as="geometry" />
        </mxCell>
        <mxCell id="78uvDg3nvBKY--fQW9kl-4" value="&lt;p style=&quot;margin:0px;margin-top:4px;text-align:center;&quot;&gt;&lt;b&gt;Interval&lt;/b&gt;&lt;/p&gt;&lt;hr size=&quot;1&quot; style=&quot;border-style:solid;&quot;&gt;&lt;p style=&quot;margin:0px;margin-left:4px;&quot;&gt;+ name: String&lt;/p&gt;&lt;p style=&quot;margin:0px;margin-left:4px;&quot;&gt;+ semitones: int&lt;/p&gt;&lt;p style=&quot;margin:0px;margin-left:4px;&quot;&gt;+ ratio: double&lt;/p&gt;&lt;hr size=&quot;1&quot; style=&quot;border-style:solid;&quot;&gt;&lt;p style=&quot;margin:0px;margin-left:4px;&quot;&gt;&lt;br&gt;&lt;/p&gt;" style="verticalAlign=top;align=left;overflow=fill;html=1;whiteSpace=wrap;" parent="78uvDg3nvBKY--fQW9kl-3" vertex="1">
          <mxGeometry x="470.14" y="267.36" width="181.76" height="93.98" as="geometry" />
        </mxCell>
        <mxCell id="78uvDg3nvBKY--fQW9kl-5" style="rounded=0;orthogonalLoop=1;jettySize=auto;html=1;exitX=0.5;exitY=1;exitDx=0;exitDy=0;endArrow=open;endFill=0;" parent="78uvDg3nvBKY--fQW9kl-3" source="78uvDg3nvBKY--fQW9kl-6" target="78uvDg3nvBKY--fQW9kl-4" edge="1">
          <mxGeometry relative="1" as="geometry" />
        </mxCell>
        <mxCell id="78uvDg3nvBKY--fQW9kl-6" value="&lt;p style=&quot;margin:0px;margin-top:4px;text-align:center;&quot;&gt;&lt;b&gt;Harmony&lt;/b&gt;&lt;/p&gt;&lt;p style=&quot;margin:0px;margin-top:4px;text-align:center;&quot;&gt;&lt;b&gt;extends ArrayList&amp;lt;Interval&amp;gt;&lt;/b&gt;&lt;/p&gt;&lt;hr size=&quot;1&quot; style=&quot;border-style:solid;&quot;&gt;&lt;p style=&quot;margin:0px;margin-left:4px;&quot;&gt;+ field: Type&lt;/p&gt;&lt;hr size=&quot;1&quot; style=&quot;border-style:solid;&quot;&gt;&lt;p style=&quot;margin:0px;margin-left:4px;&quot;&gt;+ method(): Type&lt;/p&gt;" style="verticalAlign=top;align=left;overflow=fill;html=1;whiteSpace=wrap;" parent="78uvDg3nvBKY--fQW9kl-3" vertex="1">
          <mxGeometry x="470.14" y="77.78" width="181.76" height="97.43" as="geometry" />
        </mxCell>
        <mxCell id="78uvDg3nvBKY--fQW9kl-7" style="shape=connector;rounded=0;orthogonalLoop=1;jettySize=auto;html=1;exitX=1;exitY=0.5;exitDx=0;exitDy=0;strokeColor=default;align=center;verticalAlign=middle;fontFamily=Helvetica;fontSize=11;fontColor=default;labelBackgroundColor=default;endArrow=open;endFill=0;entryX=0.106;entryY=0;entryDx=0;entryDy=0;entryPerimeter=0;" parent="78uvDg3nvBKY--fQW9kl-3" source="78uvDg3nvBKY--fQW9kl-8" target="78uvDg3nvBKY--fQW9kl-4" edge="1">
          <mxGeometry relative="1" as="geometry" />
        </mxCell>
        <mxCell id="ojWve5lmGiZq_vZhnMio-15" style="edgeStyle=none;shape=connector;rounded=0;orthogonalLoop=1;jettySize=auto;html=1;exitX=0.75;exitY=0;exitDx=0;exitDy=0;strokeColor=default;align=center;verticalAlign=middle;fontFamily=Helvetica;fontSize=11;fontColor=default;labelBackgroundColor=default;endArrow=open;endFill=0;" edge="1" parent="78uvDg3nvBKY--fQW9kl-3" source="78uvDg3nvBKY--fQW9kl-8" target="ojWve5lmGiZq_vZhnMio-1">
          <mxGeometry relative="1" as="geometry" />
        </mxCell>
        <mxCell id="78uvDg3nvBKY--fQW9kl-8" value="&lt;p style=&quot;margin:0px;margin-top:4px;text-align:center;&quot;&gt;&lt;b&gt;TuningSystem&lt;/b&gt;&lt;/p&gt;&lt;p style=&quot;margin:0px;margin-top:4px;text-align:center;&quot;&gt;&lt;b&gt;extends ArrayList&amp;lt;Interval&amp;gt;&lt;/b&gt;&lt;/p&gt;&lt;hr size=&quot;1&quot; style=&quot;border-style:solid;&quot;&gt;&lt;p style=&quot;margin:0px;margin-left:4px;&quot;&gt;&lt;br&gt;&lt;/p&gt;&lt;hr size=&quot;1&quot; style=&quot;border-style:solid;&quot;&gt;&lt;p style=&quot;margin:0px;margin-left:4px;&quot;&gt;+ validate(): void&lt;/p&gt;&lt;p style=&quot;margin:0px;margin-left:4px;&quot;&gt;+ gcd() : void&lt;/p&gt;" style="verticalAlign=top;align=left;overflow=fill;html=1;whiteSpace=wrap;" parent="78uvDg3nvBKY--fQW9kl-3" vertex="1">
          <mxGeometry x="244" y="77.77999999999999" width="181.76" height="117.43" as="geometry" />
        </mxCell>
        <mxCell id="78uvDg3nvBKY--fQW9kl-9" style="edgeStyle=orthogonalEdgeStyle;rounded=0;orthogonalLoop=1;jettySize=auto;html=1;exitX=0.5;exitY=1;exitDx=0;exitDy=0;endArrow=open;endFill=0;" parent="78uvDg3nvBKY--fQW9kl-3" source="78uvDg3nvBKY--fQW9kl-11" target="78uvDg3nvBKY--fQW9kl-17" edge="1">
          <mxGeometry relative="1" as="geometry" />
        </mxCell>
        <mxCell id="78uvDg3nvBKY--fQW9kl-10" style="shape=connector;rounded=0;orthogonalLoop=1;jettySize=auto;html=1;exitX=0.75;exitY=0;exitDx=0;exitDy=0;strokeColor=default;align=center;verticalAlign=middle;fontFamily=Helvetica;fontSize=11;fontColor=default;labelBackgroundColor=default;endArrow=open;endFill=0;" parent="78uvDg3nvBKY--fQW9kl-3" source="78uvDg3nvBKY--fQW9kl-11" target="78uvDg3nvBKY--fQW9kl-8" edge="1">
          <mxGeometry relative="1" as="geometry" />
        </mxCell>
        <mxCell id="78uvDg3nvBKY--fQW9kl-11" value="&lt;p style=&quot;margin:0px;margin-top:4px;text-align:center;&quot;&gt;&lt;b&gt;Calculator&lt;/b&gt;&lt;/p&gt;&lt;hr size=&quot;1&quot; style=&quot;border-style:solid;&quot;&gt;&lt;p style=&quot;margin:0px;margin-left:4px;&quot;&gt;+ tuningSystem: TuningSystem&lt;/p&gt;&lt;hr size=&quot;1&quot; style=&quot;border-style:solid;&quot;&gt;&lt;p style=&quot;margin:0px;margin-left:4px;&quot;&gt;+ ratio(): double&lt;/p&gt;&lt;p style=&quot;margin:0px;margin-left:4px;&quot;&gt;+ pathToInterval(): List&amp;lt;Interval&amp;gt;&lt;/p&gt;" style="verticalAlign=top;align=left;overflow=fill;html=1;whiteSpace=wrap;" parent="78uvDg3nvBKY--fQW9kl-3" vertex="1">
          <mxGeometry x="244" y="267.36" width="181.76" height="103.99" as="geometry" />
        </mxCell>
        <mxCell id="78uvDg3nvBKY--fQW9kl-12" style="rounded=0;orthogonalLoop=1;jettySize=auto;html=1;exitX=0.5;exitY=1;exitDx=0;exitDy=0;endArrow=open;endFill=0;entryX=0.25;entryY=0;entryDx=0;entryDy=0;" parent="78uvDg3nvBKY--fQW9kl-3" source="78uvDg3nvBKY--fQW9kl-14" target="78uvDg3nvBKY--fQW9kl-11" edge="1">
          <mxGeometry relative="1" as="geometry" />
        </mxCell>
        <mxCell id="78uvDg3nvBKY--fQW9kl-13" style="edgeStyle=orthogonalEdgeStyle;rounded=0;orthogonalLoop=1;jettySize=auto;html=1;exitX=0.5;exitY=1;exitDx=0;exitDy=0;endArrow=open;endFill=0;" parent="78uvDg3nvBKY--fQW9kl-3" source="78uvDg3nvBKY--fQW9kl-14" target="78uvDg3nvBKY--fQW9kl-16" edge="1">
          <mxGeometry relative="1" as="geometry" />
        </mxCell>
        <mxCell id="78uvDg3nvBKY--fQW9kl-14" value="&lt;p style=&quot;margin:0px;margin-top:4px;text-align:center;&quot;&gt;&lt;b&gt;ChordBuilder&lt;/b&gt;&lt;/p&gt;&lt;hr size=&quot;1&quot; style=&quot;border-style:solid;&quot;&gt;&lt;p style=&quot;margin:0px;margin-left:4px;&quot;&gt;+ tuningSystem: TuningSystem&lt;/p&gt;&lt;p style=&quot;margin:0px;margin-left:4px;&quot;&gt;+ harmony: Harmony&lt;/p&gt;&lt;p style=&quot;margin:0px;margin-left:4px;&quot;&gt;+ referenceNote: type&lt;/p&gt;&lt;p style=&quot;margin:0px;margin-left:4px;&quot;&gt;+ referenceFreq: double&lt;/p&gt;&lt;hr size=&quot;1&quot; style=&quot;border-style:solid;&quot;&gt;&lt;p style=&quot;margin:0px;margin-left:4px;&quot;&gt;+ build(): Chord&lt;/p&gt;" style="verticalAlign=top;align=left;overflow=fill;html=1;whiteSpace=wrap;" parent="78uvDg3nvBKY--fQW9kl-3" vertex="1">
          <mxGeometry x="34.08" y="77.78" width="181.76" height="147.02" as="geometry" />
        </mxCell>
        <mxCell id="78uvDg3nvBKY--fQW9kl-15" style="edgeStyle=orthogonalEdgeStyle;shape=connector;rounded=0;orthogonalLoop=1;jettySize=auto;html=1;exitX=0.5;exitY=1;exitDx=0;exitDy=0;entryX=0;entryY=0.5;entryDx=0;entryDy=0;strokeColor=default;align=center;verticalAlign=middle;fontFamily=Helvetica;fontSize=11;fontColor=default;labelBackgroundColor=default;endArrow=open;endFill=0;" parent="78uvDg3nvBKY--fQW9kl-3" source="78uvDg3nvBKY--fQW9kl-16" target="78uvDg3nvBKY--fQW9kl-17" edge="1">
          <mxGeometry relative="1" as="geometry" />
        </mxCell>
        <mxCell id="78uvDg3nvBKY--fQW9kl-16" value="&lt;p style=&quot;margin:0px;margin-top:4px;text-align:center;&quot;&gt;&lt;b&gt;Chord&lt;/b&gt;&lt;/p&gt;&lt;hr size=&quot;1&quot; style=&quot;border-style:solid;&quot;&gt;&lt;p style=&quot;margin:0px;margin-left:4px;&quot;&gt;+ field: Type&lt;/p&gt;&lt;hr size=&quot;1&quot; style=&quot;border-style:solid;&quot;&gt;&lt;p style=&quot;margin:0px;margin-left:4px;&quot;&gt;+ method(): Type&lt;/p&gt;" style="verticalAlign=top;align=left;overflow=fill;html=1;whiteSpace=wrap;" parent="78uvDg3nvBKY--fQW9kl-3" vertex="1">
          <mxGeometry x="34.083783783783815" y="267.36027027027023" width="181.76" height="76.6216216216216" as="geometry" />
        </mxCell>
        <mxCell id="78uvDg3nvBKY--fQW9kl-17" value="&lt;p style=&quot;margin:0px;margin-top:4px;text-align:center;&quot;&gt;&lt;b&gt;Note&lt;/b&gt;&lt;/p&gt;&lt;hr size=&quot;1&quot; style=&quot;border-style:solid;&quot;&gt;&lt;p style=&quot;margin:0px;margin-left:4px;&quot;&gt;+ field: Type&lt;/p&gt;&lt;hr size=&quot;1&quot; style=&quot;border-style:solid;&quot;&gt;&lt;p style=&quot;margin:0px;margin-left:4px;&quot;&gt;+ method(): Type&lt;/p&gt;" style="verticalAlign=top;align=left;overflow=fill;html=1;whiteSpace=wrap;" parent="78uvDg3nvBKY--fQW9kl-3" vertex="1">
          <mxGeometry x="243.99810810810806" y="429.99918918918917" width="181.76" height="76.6216216216216" as="geometry" />
        </mxCell>
        <mxCell id="ojWve5lmGiZq_vZhnMio-1" value="&lt;p style=&quot;margin:0px;margin-top:4px;text-align:center;&quot;&gt;&lt;font style=&quot;font-size: 9px;&quot;&gt;&lt;b&gt;InvalidTuningSystemException&lt;/b&gt;&lt;/font&gt;&lt;/p&gt;&lt;hr size=&quot;1&quot; style=&quot;border-style:solid;&quot;&gt;&lt;div style=&quot;height:2px;&quot;&gt;&lt;/div&gt;" style="verticalAlign=top;align=left;overflow=fill;html=1;whiteSpace=wrap;" vertex="1" parent="78uvDg3nvBKY--fQW9kl-3">
          <mxGeometry x="300" y="20" width="150" height="30" as="geometry" />
        </mxCell>
        <mxCell id="78uvDg3nvBKY--fQW9kl-18" value="com.ennsko.util" style="shape=folder;fontStyle=1;spacingTop=10;tabWidth=40;tabHeight=14;tabPosition=left;html=1;whiteSpace=wrap;verticalAlign=top;align=left;container=1;collapsible=0;" parent="1" vertex="1">
          <mxGeometry x="500" y="20" width="205" height="275" as="geometry" />
        </mxCell>
        <mxCell id="78uvDg3nvBKY--fQW9kl-19" value="&lt;p style=&quot;margin:0px;margin-top:4px;text-align:center;&quot;&gt;&lt;b&gt;FrequencyConverter&lt;/b&gt;&lt;/p&gt;&lt;hr size=&quot;1&quot; style=&quot;border-style:solid;&quot;&gt;&lt;p style=&quot;margin:0px;margin-left:4px;&quot;&gt;+ field: Type&lt;/p&gt;&lt;hr size=&quot;1&quot; style=&quot;border-style:solid;&quot;&gt;&lt;p style=&quot;margin:0px;margin-left:4px;&quot;&gt;+ method(): Type&lt;/p&gt;" style="verticalAlign=top;align=left;overflow=fill;html=1;whiteSpace=wrap;" parent="78uvDg3nvBKY--fQW9kl-18" vertex="1">
          <mxGeometry x="20.159787234042554" y="52.5" width="154.30829787234043" height="90" as="geometry" />
        </mxCell>
        <mxCell id="78uvDg3nvBKY--fQW9kl-20" value="&lt;p style=&quot;margin:0px;margin-top:4px;text-align:center;&quot;&gt;&lt;b&gt;NoteNamesAsIntegers&lt;/b&gt;&lt;/p&gt;&lt;hr size=&quot;1&quot; style=&quot;border-style:solid;&quot;&gt;&lt;p style=&quot;margin:0px;margin-left:4px;&quot;&gt;+ field: Type&lt;/p&gt;&lt;hr size=&quot;1&quot; style=&quot;border-style:solid;&quot;&gt;&lt;p style=&quot;margin:0px;margin-left:4px;&quot;&gt;+ method(): Type&lt;/p&gt;" style="verticalAlign=top;align=left;overflow=fill;html=1;whiteSpace=wrap;" parent="78uvDg3nvBKY--fQW9kl-18" vertex="1">
          <mxGeometry x="20.159787234042554" y="162.5" width="154.30829787234043" height="90" as="geometry" />
        </mxCell>
        <mxCell id="ojWve5lmGiZq_vZhnMio-12" style="edgeStyle=none;shape=connector;rounded=0;orthogonalLoop=1;jettySize=auto;html=1;exitX=0.5;exitY=1;exitDx=0;exitDy=0;strokeColor=default;align=center;verticalAlign=middle;fontFamily=Helvetica;fontSize=11;fontColor=default;labelBackgroundColor=default;endArrow=open;endFill=0;entryX=0.133;entryY=-0.003;entryDx=0;entryDy=0;entryPerimeter=0;" edge="1" parent="1" source="78uvDg3nvBKY--fQW9kl-2" target="78uvDg3nvBKY--fQW9kl-8">
          <mxGeometry relative="1" as="geometry" />
        </mxCell>
        <mxCell id="ojWve5lmGiZq_vZhnMio-13" style="edgeStyle=none;shape=connector;rounded=0;orthogonalLoop=1;jettySize=auto;html=1;exitX=0.5;exitY=1;exitDx=0;exitDy=0;strokeColor=default;align=center;verticalAlign=middle;fontFamily=Helvetica;fontSize=11;fontColor=default;labelBackgroundColor=default;endArrow=open;endFill=0;" edge="1" parent="1" source="78uvDg3nvBKY--fQW9kl-2" target="78uvDg3nvBKY--fQW9kl-6">
          <mxGeometry relative="1" as="geometry">
            <Array as="points">
              <mxPoint x="530" y="330" />
            </Array>
          </mxGeometry>
        </mxCell>
        <mxCell id="ojWve5lmGiZq_vZhnMio-14" style="edgeStyle=none;shape=connector;rounded=0;orthogonalLoop=1;jettySize=auto;html=1;exitX=0.5;exitY=1;exitDx=0;exitDy=0;entryX=0.5;entryY=0;entryDx=0;entryDy=0;strokeColor=default;align=center;verticalAlign=middle;fontFamily=Helvetica;fontSize=11;fontColor=default;labelBackgroundColor=default;endArrow=open;endFill=0;" edge="1" parent="1" source="78uvDg3nvBKY--fQW9kl-2" target="78uvDg3nvBKY--fQW9kl-14">
          <mxGeometry relative="1" as="geometry" />
        </mxCell>
        <mxCell id="ojWve5lmGiZq_vZhnMio-16" value="&lt;div&gt;&lt;font style=&quot;font-size: 15px;&quot;&gt;Program Inputs:&lt;/font&gt;&lt;/div&gt;&lt;div align=&quot;left&quot;&gt;&lt;font style=&quot;font-size: 15px;&quot;&gt;-Tuning system&lt;/font&gt;&lt;/div&gt;&lt;div align=&quot;left&quot;&gt;&lt;font style=&quot;font-size: 15px;&quot;&gt;-Harmony to tune&lt;/font&gt;&lt;/div&gt;&lt;div align=&quot;left&quot;&gt;&lt;font style=&quot;font-size: 15px;&quot;&gt;-Reference note&lt;/font&gt;&lt;/div&gt;&lt;div align=&quot;left&quot;&gt;&lt;font style=&quot;font-size: 15px;&quot;&gt;-Reference freq&lt;/font&gt;&lt;/div&gt;" style="text;html=1;align=center;verticalAlign=middle;whiteSpace=wrap;rounded=0;fontFamily=Helvetica;fontSize=11;fontColor=default;labelBackgroundColor=default;" vertex="1" parent="1">
          <mxGeometry x="70" y="80" width="140" height="120" as="geometry" />
        </mxCell>
      </root>
    </mxGraphModel>
  </diagram>
</mxfile>
